HIERARCHY
ROOT Hips
{
  OFFSET 65.764 101.053 342.483
  CHANNELS 6 Xposition Yposition Zposition Zrotation Xrotation Yrotation
  JOINT RightUpLeg
  {
    OFFSET -8.9458 -8.66707 0.101652
    CHANNELS 3 Zrotation Xrotation Yrotation
    JOINT RightLeg
    {
      OFFSET 0 -44.4227 1.3727
      CHANNELS 3 Zrotation Xrotation Yrotation
      JOINT RightFoot
      {
        OFFSET 0.253549 -42.0924 -1.46059
        CHANNELS 3 Zrotation Xrotation Yrotation
        JOINT RightToes
        {
          OFFSET 0.04 -4.41509 8.4991
          CHANNELS 3 Zrotation Xrotation Yrotation
          End Site
          {
            OFFSET -0.08 -0.137448 9.77979
          }
        }
      }
    }
  }
  JOINT Spine
  {
    OFFSET 0 11.8905 0
    CHANNELS 3 Zrotation Xrotation Yrotation
    JOINT Spine1
    {
      OFFSET 0 25.6574 0.127663
      CHANNELS 3 Zrotation Xrotation Yrotation
      JOINT HEad
      {
        OFFSET 0 8.73416 0.011341
        CHANNELS 3 Zrotation Xrotation Yrotation
        End Site
        {
          OFFSET -0.29 12.7742 2.51395
        }
      }
      JOINT LeftShoulder1
      {
        OFFSET 8.99 -0.362252 -0.22
        CHANNELS 3 Zrotation Xrotation Yrotation
        JOINT LeftArm
        {
          OFFSET 10.2827 -0.00338 0.322123
          CHANNELS 3 Zrotation Xrotation Yrotation
          JOINT LeftForeArm
          {
            OFFSET 32.7669 0.099144 -1.42434
            CHANNELS 3 Zrotation Xrotation Yrotation
            JOINT LeftHand
            {
              OFFSET 27.5643 0.085362 1.02216
              CHANNELS 3 Zrotation Xrotation Yrotation
              End Site
              {
                OFFSET 16.7443 -0.6 1.50291
              }
            }
          }
        }
      }
      JOINT RightShoulder
      {
        OFFSET -8.99 -0.362252 -0.22
        CHANNELS 3 Zrotation Xrotation Yrotation
        JOINT RightArm
        {
          OFFSET -10.2827 -0.00338 0.322123
          CHANNELS 3 Zrotation Xrotation Yrotation
          JOINT RightForeArm
          {
            OFFSET -32.8971 0.099144 -1.42434
            CHANNELS 3 Zrotation Xrotation Yrotation
            JOINT RightHand
            {
              OFFSET -27.4921 0.085362 1.02216
              CHANNELS 3 Zrotation Xrotation Yrotation
              End Site
              {
                OFFSET -16.6312 -0.6 1.50291
              }
            }
          }
        }
      }
    }
  }
  JOINT LeftUpLeg
  {
    OFFSET 8.9458 -8.66707 0.101652
    CHANNELS 3 Zrotation Xrotation Yrotation
    JOINT LeftLeg
    {
      OFFSET 0 -44.4227 1.3727
      CHANNELS 3 Zrotation Xrotation Yrotation
      JOINT LeftFoot
      {
        OFFSET -0.253549 -42.0924 -1.46059
        CHANNELS 3 Zrotation Xrotation Yrotation
        JOINT LeftToes
        {
          OFFSET -0.04 -4.41509 8.4991
          CHANNELS 3 Zrotation Xrotation Yrotation
          End Site
          {
            OFFSET 0.08 -0.047448 9.77979
          }
        }
      }
    }
  }
}
MOTION
Frames:	16
Frame Time:	0.0166667
163.9881	97.2733	-160.558	-1.82348	-18.352	157.766	-0.650929	-61.728	13.1474	20.8741	57.6211	-25.2883	7.73196	-0.4877	-19.3324	0.0462048	0.000533964	0.662642	-1.10895	-1.06944	-0.977795	-2.23656	-2.11681	-1.97678	1.34324	6.08145	20.9821	-1.59E-15	0.00E+00	-3.18E-15	-45.6206	25.5079	-43.878	-10.8702	-10.1831	-49.4274	11.1375	8.0213	5.82945	-1.59E-15	0.00E+00	-3.18E-15	71.5917	19.6558	-31.8794	-1.88057	10.1453	26.7838	-12.8005	7.85585	0.872299	3.37862	-38.197	23.2853	4.53948	41.1402	-5.1754	-11.7789	-27.421	-6.72814	5.07E-15	3.34E-14	5.57E-15
164.2841	97.5584	-162.211	-1.66153	-17.8855	158.253	0.548421	-61.1214	14.1496	15.7336	54.1592	-21.2258	7.52902	-1.03375	-19.4232	0.0462048	0.000533964	0.662642	-1.08558	-1.08494	-1.06427	-2.1917	-2.14654	-2.14965	1.25988	6.59629	20.9683	5.57E-15	0.00E+00	0.00E+00	-45.4978	25.4272	-43.4659	-10.9425	-9.64776	-51.6482	11.0859	8.31218	5.70888	5.57E-15	0.00E+00	0.00E+00	71.3998	18.8895	-33.0597	-2.44551	13.5514	26.6475	-11.4654	8.16433	0.5076	2.52625	-36.1066	22.2579	4.21774	40.1544	-4.87608	-12.1358	-27.848	-6.95324	1.36E-14	3.26E-14	6.36E-15
164.5841	97.7423	-163.885	-1.59367	-17.4721	158.703	1.47561	-60.418	15.0226	11.5917	50.4067	-18.392	7.09477	-1.70396	-19.3013	0.0462048	0.000533964	0.662642	-1.06957	-1.10674	-1.13845	-2.16151	-2.18903	-2.29817	1.1889	6.88096	20.9282	-1.59E-15	-1.59E-15	9.54E-15	-45.4899	25.3036	-42.9158	-10.9062	-8.89016	-53.8584	10.9972	8.54398	5.57381	-1.59E-15	-1.59E-15	9.54E-15	71.1571	17.965	-33.9623	-2.67223	16.1645	26.258	-9.62681	8.39536	0.18744	1.75996	-34.2204	21.4322	3.92562	39.3789	-4.59562	-12.6157	-28.2189	-7.3038	1.00E-14	3.34E-14	5.57E-15
164.8821	97.8296	-165.576	-1.58391	-17.0246	159.145	1.93507	-59.4706	15.2877	8.02838	46.4508	-16.1369	6.59529	-2.64413	-18.5998	0.0462048	0.000533964	0.662642	-1.06159	-1.12259	-1.2042	-2.14714	-2.21964	-2.42985	1.10337	7.00009	20.8884	-7.95E-16	0.00E+00	-6.36E-15	-45.6064	25.1933	-42.207	-10.7579	-7.96651	-56.0396	10.862	8.77568	5.42663	-7.95E-16	0.00E+00	-6.36E-15	71.0929	17.0696	-34.7291	-2.81804	18.018	25.6409	-7.33418	8.49683	-0.101427	1.07256	-32.4505	20.8874	3.70295	38.8245	-4.4084	-13.2177	-28.5268	-7.78289	1.25E-14	3.22E-14	5.57E-15
165.1761	97.8207	-167.294	-1.62605	-16.644	159.52	2.27613	-58.4689	15.0462	4.85611	42.409	-14.0354	6.16514	-3.6992	-17.4738	0.0462048	0.000533964	0.662642	-1.05115	-1.15606	-1.24366	-2.12777	-2.28604	-2.50924	0.996865	6.94807	20.8658	7.95E-16	-1.59E-15	6.36E-15	-45.8012	25.0898	-41.3697	-10.5079	-6.92803	-58.1966	10.6755	9.04169	5.27315	7.95E-16	-1.59E-15	6.36E-15	71.2128	16.2514	-35.3764	-2.99252	19.254	24.8947	-4.67693	8.55169	-0.374701	0.517316	-30.8746	20.7103	3.59526	38.5051	-4.48618	-13.89	-28.8095	-8.29982	1.39E-14	3.18E-14	6.36E-15
165.4651	97.7097	-169.03	-1.69115	-16.2785	159.88	2.57546	-57.4983	14.7692	2.46966	38.4685	-12.4975	6.08756	-4.76484	-15.8053	0.0462048	0.000533964	0.662642	-1.04259	-1.19411	-1.26798	-2.11201	-2.36187	-2.55846	0.849056	6.78749	20.8952	1.59E-15	0.00E+00	6.36E-15	-46.0462	24.9915	-40.405	-10.1758	-5.78915	-60.3169	10.4362	9.33332	5.11275	1.59E-15	0.00E+00	6.36E-15	71.498	15.5142	-35.9437	-3.19885	20.0135	24.098	-1.90983	8.66422	-0.641056	0.0213253	-29.4786	20.612	3.52656	38.4884	-4.62931	-14.6415	-29.0452	-8.84929	1.70E-14	3.26E-14	6.36E-15
165.7521	97.4885	-170.762	-1.73232	-15.8855	160.276	3.00848	-56.6231	15.0757	0.963986	34.9946	-11.8861	6.49359	-5.85718	-14.8007	0.0462048	0.000533964	0.662642	-1.03646	-1.2256	-1.29045	-2.10096	-2.42455	-2.6039	0.679244	6.59253	21.0016	1.59E-15	1.59E-15	0.00E+00	-46.3447	24.9186	-39.2889	-9.7521	-4.56948	-62.3823	10.1551	9.62645	4.94052	1.59E-15	1.59E-15	0.00E+00	71.9536	14.8895	-36.4441	-3.39061	20.3746	23.277	0.636193	8.87239	-0.896552	-0.388778	-28.3271	20.1543	3.24402	38.8767	-4.29315	-15.5409	-29.127	-9.47671	1.32E-14	3.24E-14	6.36E-15
166.0541	97.2328	-172.428	-1.78951	-15.3831	160.671	3.22527	-55.9375	15.9599	0.479376	32.2964	-12.3966	7.59809	-7.0186	-13.7353	0.0462048	0.000533964	0.662642	-1.058	-1.24008	-1.29959	-2.14459	-2.45284	-2.62293	0.51541	6.44012	21.1528	7.95E-16	-4.77E-15	3.18E-15	-46.7182	24.9037	-38.0036	-9.23905	-3.29998	-64.3682	9.84767	9.90901	4.76321	7.95E-16	-4.77E-15	3.18E-15	72.531	14.3757	-36.89	-3.48468	20.4686	22.4325	2.62552	9.09689	-1.09571	-0.776048	-27.3373	19.4623	2.75806	39.6703	-3.46639	-16.5661	-29.1552	-10.2505	9.63E-15	3.20E-14	5.57E-15
165.9981	96.9628	-173.76	-1.79781	-14.7716	161.097	3.17257	-55.4206	16.9409	0.730245	30.4215	-13.6757	9.21273	-8.17129	-12.4607	0.0462048	0.000533964	0.662642	-1.07844	-1.22355	-1.30343	-2.18516	-2.41924	-2.63071	0.320112	6.39563	21.2829	-7.95E-16	-1.59E-15	0.00E+00	-47.2017	24.9535	-36.5681	-8.65567	-2.03236	-66.2312	9.54459	10.1668	4.57015	-7.95E-16	-1.59E-15	0.00E+00	73.1232	13.9521	-37.2405	-3.40328	20.4508	21.5599	3.85416	9.25113	-1.17519	-1.15781	-26.2911	18.3882	1.99963	40.8135	-2.29008	-17.5841	-29.375	-11.0448	1.66E-14	3.16E-14	5.96E-15
166.3741	96.6811	-175.244	-1.74468	-14.164	161.523	3.19558	-55.0521	17.6566	1.25958	29.3467	-14.9673	11.0007	-9.36499	-11.2027	0.0462048	0.000533964	0.662642	-1.06497	-1.18921	-1.30165	-2.15735	-2.35092	-2.62619	0.0377527	6.4339	21.3827	-7.95E-16	3.18E-15	0.00E+00	-47.7989	25.0144	-35.0435	-8.07136	-0.824131	-67.9064	9.27872	10.3929	4.34303	-7.95E-16	3.18E-15	0.00E+00	73.7187	13.6523	-37.4046	-3.22562	20.4261	20.6603	4.39677	9.24418	-1.1349	-1.47599	-25.3158	17.201	1.1596	42.0289	-1.02208	-18.5313	-29.5001	-11.7851	1.54E-14	3.18E-14	5.57E-15
166.6341	96.3875	-176.675	-1.66906	-13.4874	162.038	3.34748	-54.66	17.8151	1.74742	29.0167	-15.8311	12.7004	-10.5614	-10.0044	0.0462048	0.000533964	0.662642	-1.03509	-1.13213	-1.31138	-2.0964	-2.23731	-2.64393	-0.332719	6.57092	21.4675	0.00E+00	0.00E+00	-3.18E-15	-48.5095	25.1519	-33.4364	-7.54075	0.306482	-69.3241	9.09267	10.5609	4.06449	0.00E+00	0.00E+00	-3.18E-15	74.387	13.5809	-37.391	-2.97563	20.4218	19.72	4.46334	9.07071	-1.03795	-1.72737	-24.1614	16.2606	0.557453	43.2149	-0.241267	-19.4751	-29.6094	-12.4785	3.48E-15	3.14E-14	5.96E-15
166.9911	96.0668	-178.18	-1.51402	-12.7597	162.647	3.8929	-54.1071	17.6289	2.06977	29.4189	-16.1872	14.3506	-11.618	-8.44282	0.0462048	0.000533964	0.662642	-0.97803	-1.043	-1.32751	-1.98043	-2.06012	-2.67345	-0.722505	6.81545	21.5931	0.00E+00	0.00E+00	3.18E-15	-49.2784	25.3764	-31.7758	-7.11763	1.33986	-70.3886	9.02783	10.6376	3.71596	0.00E+00	0.00E+00	3.18E-15	75.219	13.8025	-37.1776	-2.70768	20.4423	18.7768	4.17987	8.79354	-0.92528	-2.00572	-23.0124	15.0707	-0.149205	44.4803	0.711831	-20.2578	-29.5788	-13.1021	7.45E-15	2.94E-14	5.17E-15
167.3331	95.7001	-179.711	-1.39546	-12.0932	163.322	4.38059	-53.5498	16.8236	2.40214	30.4859	-15.9224	15.951	-12.3727	-6.51982	0.0462048	0.000533964	0.662642	-0.922831	-0.96378	-1.35707	-1.8686	-1.90252	-2.73024	-1.00105	7.16242	21.7544	1.19E-15	-1.59E-15	0.00E+00	-50.0891	25.6614	-30.0577	-6.80613	2.32285	-70.9702	9.13304	10.5595	3.27001	1.19E-15	-1.59E-15	0.00E+00	76.2252	14.3938	-36.7181	-2.41654	20.4908	17.8363	3.59447	8.4908	-0.780019	-2.22291	-21.841	14.1727	-0.734975	45.7386	1.39391	-20.9013	-29.5268	-13.7267	2.17E-14	3.34E-14	5.96E-15
167.7451	95.2727	-181.316	-1.21642	-11.4911	164.105	4.72125	-52.8098	14.8237	2.41166	31.9156	-14.0859	15.4884	-12.6786	-4.62964	0.0462048	0.000533964	0.662642	-0.831079	-0.883599	-1.40597	-1.68387	-1.74366	-2.82528	-1.12313	7.58961	21.8887	1.59E-15	3.18E-15	-3.18E-15	-50.9372	26.0352	-28.342	-6.59971	3.30773	-70.8782	9.50393	10.2925	2.72405	1.59E-15	3.18E-15	-3.18E-15	77.2702	15.2026	-36.0047	-2.1425	20.7014	16.9499	2.7915	8.29197	-0.567881	-2.32989	-20.6874	13.5736	-1.11535	47.0332	1.74447	-21.4301	-29.504	-14.3608	2.10E-14	3.18E-14	5.96E-15
168.1751	94.8239	-182.948	-1.12793	-11.9455	164.423	5.90592	-52.8555	13.6021	2.23465	32.4853	-10.0725	12.9916	-10.9307	-3.93049	0.0462048	0.000533964	0.662642	-0.663244	-1.04519	-1.33727	-1.35102	-2.07176	-2.68741	-1.05083	7.74446	22.0416	-1.19E-15	1.59E-15	0.00E+00	-51.6368	26.2501	-26.7466	-6.41368	4.44017	-70.0967	10.2071	9.74942	2.18096	-1.19E-15	1.59E-15	0.00E+00	78.1567	16.0972	-34.7651	-1.9248	21.1943	16.2873	1.94157	8.27976	-0.380938	-1.93905	-20.5853	13.9608	-1.11551	48.3732	1.64418	-21.8803	-29.208	-15.6888	1.79E-14	3.18E-14	4.77E-15
168.5751	94.3606	-184.574	-0.826314	-12.0536	165.225	5.83087	-53.5641	12.5416	2.59514	35.1906	-7.09838	10.2305	-8.00796	-3.445	0.0462048	0.000533964	0.662642	-0.502638	-1.09915	-1.37789	-1.03184	-2.18307	-2.76632	-0.829818	7.97063	22.1565	-1.59E-15	-1.59E-15	0.00E+00	-52.196	26.9126	-25.1816	-6.13189	5.57308	-68.5011	11.0731	8.94536	1.81371	-1.59E-15	-1.59E-15	0.00E+00	78.9129	16.8385	-33.5288	-1.78819	22.0089	16.0739	1.16524	8.45319	-0.298398	-1.67202	-20.1941	14.0887	-0.714545	49.8603	1.23775	-22.4292	-28.842	-16.9837	1.92E-14	3.34E-14	6.56E-15
